<?xml version="1.0" encoding="UTF-8"?><svg xmlns="http://www.w3.org/2000/svg" xmlns:xlink="http://www.w3.org/1999/xlink" height="608.2" preserveAspectRatio="xMidYMid meet" version="1.0" viewBox="134.8 195.8 930.2 608.2" width="930.2" zoomAndPan="magnify"><g><path d="M775.9,340.2c1.2-4.6,4.1-8.4,7.8-10.9c-3.9-1.8-7-4.8-8.9-8.4c-1.7,4.5-5.2,8.1-9.4,10.2 C770.1,332.6,773.8,335.9,775.9,340.2z" fill="none"/><path d="M712.9,261.4c0.9-3.6,3.2-6.6,6.1-8.6c-3-1.4-5.5-3.7-7-6.6c-1.4,3.5-4,6.4-7.4,8 C708.3,255.4,711.2,258.1,712.9,261.4z" fill="none"/><path d="M795.8,295.9c3.2,0,5.7-2.6,5.7-5.7c0-3.2-2.6-5.7-5.7-5.7c-3.2,0-5.7,2.6-5.7,5.7 C790.1,293.4,792.7,295.9,795.8,295.9z" fill="none"/><path d="M650.2 290.9L661.6 287.8 670.7 295.4 671.3 283.6 681.3 277.3 670.2 273.1 667.4 261.6 660 270.9 648.2 270 654.7 279.9z" fill="none"/><path d="M480.6,383.2c-3.2,0-5.7,2.6-5.7,5.7c0,3.2,2.6,5.7,5.7,5.7s5.7-2.6,5.7-5.7 C486.3,385.8,483.7,383.2,480.6,383.2z" fill="none"/><path d="M624 407.2L621.8 403.3 620 407.4 615.5 408.3 618.9 411.3 618.3 415.8 622.3 413.5 626.4 415.4 625.4 411 628.5 407.7z" fill="none"/><path d="M875.2 380.4L874.4 386.3 879.5 383.3 884.9 385.8 883.6 380.1 887.7 375.8 881.8 375.2 879 370 876.6 375.4 870.8 376.5z" fill="none"/><path d="M294.6,420.5c2.3,0,4.1-1.8,4.1-4.1c0-2.3-1.8-4.1-4.1-4.1s-4.1,1.8-4.1,4.1 C290.5,418.7,292.3,420.5,294.6,420.5z" fill="none"/><circle cx="514.5" cy="279.2" fill="none" r="7"/><path d="M447.7 296.1L452.8 293.2 458.1 295.7 456.9 289.9 460.9 285.6 455.1 285 452.2 279.9 449.8 285.3 444 286.3 448.4 290.3z" fill="none"/><path d="M523.3,258.6c1.3-5.2,4.6-9.5,8.8-12.3c-4.4-2-7.9-5.4-10-9.5c-2,5.1-5.8,9.2-10.6,11.5 C516.7,250,520.9,253.8,523.3,258.6z" fill="none"/><path d="M320.1,398c16.6-2.8,12.8,13.3,12.8,13.3c-2,22.8,4.8,31.5,11.5,34.7l-1.2,5.8c-11.3,1-14.4-1.9-14.7-3.2 c0,0.1,0,0.1,0,0.1l-5.1,0.3c0,0.4,0.3,2.7,2.7,4.7c3.5,3,9.7,4,18.4,3.1c0.2,0,0.4,0,0.6-0.1c0.2,0,0.4,0,0.6,0 c0.1,0,0.2-0.1,0.4-0.1c1.4-0.2,3-0.4,4.8-0.7l-1.7,7.9c-0.4,0.1-0.9,0.1-1.3,0.2c-12,1.3-15.2-1.8-15.5-3.1c0,0.1,0,0.1,0,0.1 l-5.1,0.3c0,0.4,0.3,2.7,2.7,4.7c3.5,3,9.7,4,18.4,3.1c3.4-0.4,9.3-1.3,16.7-2.6c12.6-2.3,29.4-5.7,45.5-9.7 c50.3-12.6,53.6-20.6,54.7-23.2c0.5-1.3-0.1-2.8-1.4-3.3c-1.3-0.5-2.8,0.1-3.3,1.4c-1.4,3.3-8.6,7-18.8,10.7l-5.4-6.4 c22.1-7.7,24.2-12.6,25-14.6c0.5-1.3-0.1-2.8-1.4-3.3c-1.3-0.5-2.8,0.1-3.3,1.4c-1.6,3.8-11,8.2-23.8,12.4l-3.3-3.9 c4.2-2.9,6.8-6.5,8.2-11.1c5.1-16.5-9-28.7-9-28.7c11.1-1.1,14.3-10.8,11.4-17.2c-2.9-6.4-19-8.3-25.3,7.4 c-1.3,3.3-4.3,6.2-8.3,8.7c-0.1-0.5-0.2-1-0.4-1.5c-0.6-1.8-1-3.3-1.4-4.6c3.1-2.2,8-3.5,10.4-6.9c3.2-4.6,15.4-9.4,15.4-9.4 s0.2-1,0.3-2.1c2.6-0.7,6.4-0.4,9.3-1c3.4-0.7,3.9-3.4,3.9-3.4c1.5-1.9-0.4-4.7-0.4-4.7c0.1-3.5-2-4-2.1-4 c28.4-10.9,50.7-3.3,62.6,3.1c6.2,3.4,17.1,5,30.3,5.5c-4.7,6.7-12.1,10.7-14.5,13.6c-2.8,3.3-16.1,11.5-16.3,13.6 c-0.2,2.1-3.9,6-2.3,6.9c1.6,0.9,7.3-3.2,9.5-6c0.9-1.2,4.8-4.1,9-7c-4,4.7-11.6,11.9-11.5,13.6c0.2,2.1-2.7,6.6-1,7.2 c1.7,0.6,6.6-4.5,8.2-7.7c1.6-3.1,16.8-17.9,19-18.4c2.3-0.4,16.9-2.9,24.2-12.5c0,0,32.1,3.9,44-5.5c2-0.6,3.9-1.4,5.4-2.2 c0.2,0,0.5-0.1,0.7-0.1c-2.8,3.5-11.3,9.9-12.6,10.5c-1.5,0.6-4.7,1.4-5.8,3.2s-0.6,4.9-0.6,4.9l15.7-9.4c-1.4,1.8-2.5,3.2-2.9,3.6 c-1.3,1-4.2,2.6-4.7,4.7c-0.5,2,0.8,4.9,0.8,4.9l14.7-15.8c3-2.4,4.9-5.2,5.9-7.8c10.8-1.4,20.2-2.9,26.7-4.1 c5.1-0.9,10.3-1.5,15.4-1.6c-0.6,1-1.2,2.2-1.9,3.4c-0.1,0.1-0.2,0.3-0.2,0.4c-5.8,6.2-14,9-16.9,11.5c-3.3,2.9-17.7,8.8-18.3,10.8 c-0.5,2-4.8,5.3-3.4,6.5c1.4,1.2,7.8-2,10.3-4.4c1.1-1,5.3-3.3,10-5.4c-4.7,4-13.3,9.9-13.5,11.6c-0.2,2.1-3.7,6.1-2.1,7 c1.6,0.9,7.3-3.4,9.4-6.2c2.1-2.8,19.4-15,21.7-15.1c2.3-0.1,17.1-0.2,25.9-8.5c0,0,30.9,9,44.2,1.6c1,0.4,2.1,0.8,3.1,1.3 c-4.1,2.7-9.7,5.6-10.7,5.8c-1.6,0.4-4.9,0.6-6.2,2.2c-1.4,1.6-1.4,4.8-1.4,4.8l17-6.8c-1.6,1.6-3,2.8-3.5,3 c-1.4,0.8-4.5,1.9-5.4,3.9c-0.9,1.9,0,4.9,0,4.9l17.1-13.2c0.5-0.3,1-0.6,1.5-1c5.5,2.5,10.5,5,14.7,7.2c6.5,3.4,13.6,6.5,20.7,9.1 c-0.4,0.6-0.8,1.1-1.2,1.8c-0.1,0.1-0.2,0.3-0.3,0.4c-6.5,5.5-15,7.3-18.2,9.5c-3.6,2.5-18.6,6.6-19.4,8.6c-0.8,2-5.4,4.7-4.1,6.1 c1.3,1.3,7.9-1.1,10.8-3.2c1.2-0.9,5.7-2.6,10.5-4.2c-5.1,3.4-14.4,8.2-14.7,9.9c-0.4,2.1-4.4,5.6-2.9,6.7c1.5,1.1,7.6-2.5,10-5.1 s21.1-12.6,23.4-12.4c2.3,0.2,17,1.8,26.7-5.4c0,0,29.8,12.6,43.8,6.8c2.6-0.1,5.1-0.4,7-0.8c-3.3,2.6-14,6.8-15.5,6.9 c-1.6,0.2-4.9,0.1-6.5,1.5s-1.9,4.6-1.9,4.6l17.7-4.8c-1.8,1.4-3.3,2.4-3.8,2.6c-1.5,0.6-4.7,1.4-5.8,3.2c-1.1,1.8-0.6,4.9-0.6,4.9 l18.5-11.2c12.2-5.2,12.9-17.5,6.5-16.1c-2.3,0.5-5.2,0-8.1-0.8c1.3-9.7-5.1-22.5-3.9-25.4c1.7-4.1,3.1-5.4,3.1-5.4 s4.3,2.5,8.2,2.1c2.6-0.3,4-1.1,4.8-2c0.8,0.1,1.6-0.3,1.9-1c0.4-0.9-0.1-1.9-1-2.3c-0.7-0.3-1.4-0.1-1.9,0.4 c-1.7-0.9-4.2-2-6.2-3.3c-2.8-1.9-1.9-4.7-5.4-6.7c2.9-2,7.3-4.2,12.6-3.7c2.4,0.2,4.3,0.1,5.7-0.4c1.2,0.5,5.2,1.8,7.4,0.2l-1-1.3 c-1,0.7-2.9,0.4-4.4,0c0.2-0.2,0.3-0.3,0.5-0.5c1.2-1.6,0.6-3.3,0.6-3.4l-1.6,0.5c0,0,0.3,1-0.4,1.9c-0.9,1.1-3.2,1.6-6.5,1.3 c5-7.1,1.1-14.3,1.1-14.4l-1.5,0.8c0.1,0.2,1.5,2.8,1.3,6.4c-1.5-0.8-5.1-2.9-6.7-6.8l-1.5,0.6c2,4.9,6.6,7.2,8,7.8 c-0.4,1.7-1.2,3.6-2.7,5.4c-2.1,0-4.1,0.4-5.9,1c0.7-3.5,2.6-6.1,2.6-6.1l-1.3-1c-0.1,0.1-2.5,3.5-3.1,7.8c-2.1,0.9-3.8,2-5.1,3 c-0.3-0.1-0.7-0.2-1.1-0.3c0,0-0.1,0-0.3-0.1c-1.2-2.1-3-4.4-5.8-6.7c-0.7-1.9-0.1-4.2,1-6.3c0.4-0.1,1.5-0.3,4.3-0.8 c4.9-0.8,6.3-2.9,6.5-3.1l-1.4-0.9c0,0-1.2,1.7-5.4,2.4c-1.3,0.2-2.3,0.4-3,0.5c1.8-3.1,4.1-5.6,4.2-5.7l-1.2-1.1 c-0.3,0.3-7,7.6-6.9,13.6c-0.2-0.1-0.3-0.3-0.5-0.4c-9.3-6.3-7.6-12.8-7.5-13.1l-1.6-0.5c-0.1,0.2-1.3,4.9,3.1,10.3 c-2.7-0.4-5.4-1.5-5.4-1.5l-0.6,1.5c0.2,0.1,4.3,1.8,7.7,1.8c1,0.9,2.1,1.8,3.4,2.7c0.8,0.5,1.5,1.1,2.1,1.6 c2.2,1.8,3.7,3.5,4.8,5.1c-2-0.3-5-0.4-8.7,0.5c0,0,1.3,3.7,4.8,3.9c0,0-4.8,1.6-6,9.9c-1.2,8.3-5.9,19-14,19 c-8,0-22.7-7.2-26.6-7.4c0,0-4.4-8.2-14.9-12c0,0,3.7,10.9,8.3,13.4c0,0-1.2,0.6-3,2c-10.5-3.3-21.5-7.6-31.2-12.7 c-1.5-0.8-3.1-1.6-4.8-2.5c3.7-5.9,2.1-11.9-2.4-10.3c-2.2,0.8-5.2,0.6-8.1,0.2c0.2-9.8-7.7-21.7-6.8-24.8c1.2-4.2,2.5-5.8,2.5-5.8 s4.6,2,8.4,1.1c2.5-0.6,3.8-1.6,4.5-2.6c0.8,0,1.6-0.4,1.8-1.2c0.3-0.9-0.3-1.9-1.2-2.2c-0.7-0.2-1.4,0.1-1.8,0.6 c-1.8-0.7-4.4-1.4-6.6-2.6c-3-1.6-2.4-4.5-6.2-6c2.6-2.3,6.8-5,12.1-5.2c2.4-0.1,4.2-0.4,5.6-1.1c1.3,0.3,5.4,1.2,7.4-0.6l-1.1-1.2 c-0.9,0.8-2.8,0.7-4.4,0.5c0.2-0.2,0.3-0.3,0.4-0.5c1-1.7,0.2-3.4,0.2-3.5l-1.5,0.7c0,0,0.4,1-0.1,1.9c-0.8,1.2-3,2-6.3,2.1 c4.1-7.6-0.5-14.3-0.6-14.4l-1.3,1c0.1,0.2,1.8,2.6,2,6.2c-1.6-0.6-5.4-2.2-7.5-5.9l-1.4,0.8c2.6,4.6,7.4,6.4,8.9,6.8 c-0.2,1.7-0.8,3.7-2,5.7c-2.1,0.3-4,0.9-5.7,1.7c0.3-3.5,1.9-6.4,1.9-6.4l-1.4-0.8c-0.1,0.2-2.1,3.7-2.2,8.1 c-1.9,1.1-3.5,2.4-4.7,3.6c-0.3-0.1-0.7-0.1-1.1-0.2c0,0-0.1,0-0.3-0.1c-1.4-1.9-3.5-4-6.6-6c-0.9-1.8-0.6-4.1,0.2-6.4 c0.4-0.1,1.4-0.5,4.2-1.3c4.7-1.4,6-3.6,6.1-3.9l-1.5-0.7c0,0-1,1.9-5,3c-1.3,0.4-2.2,0.6-2.9,0.9c1.5-3.3,3.5-6.1,3.5-6.1l-1.3-1 c-0.3,0.4-6.1,8.4-5.2,14.3c-0.2-0.1-0.4-0.2-0.6-0.3c-10-5.2-9.1-11.8-9-12.1l-1.6-0.3c0,0.3-0.7,5.1,4.3,9.9 c-2.7-0.1-5.5-0.9-5.6-0.9l-0.5,1.6c0.2,0.1,4.5,1.2,7.9,0.9c1.1,0.8,2.3,1.6,3.7,2.3c0.8,0.4,1.6,0.9,2.3,1.3 c2.3,1.5,4.1,3.1,5.4,4.5c-2-0.1-5.1,0.2-8.6,1.6c0,0,1.7,3.5,5.2,3.3c0,0-4.6,2.1-4.8,10.5c-0.2,8.4-3.7,19.6-11.7,20.5 c-8,0.9-23.4-4.5-27.3-4.3c0,0-5.3-7.7-16.2-10.2c0,0,3,6.3,6.7,10.1c-8.7-0.5-17.5-0.1-26.1,1.5c-8.8,1.6-20,3.4-32.3,4.9 c-2.2-9.2-10.7-18.7-10.4-21.6c0.5-4.4,1.5-6.1,1.5-6.1s4.9,1.3,8.5-0.3c2.4-1,3.5-2.2,4.1-3.3c0.8-0.1,1.5-0.7,1.6-1.5 c0.1-1-0.6-1.8-1.5-1.9c-0.7-0.1-1.4,0.3-1.7,0.9c-1.9-0.4-4.6-0.7-6.9-1.5c-3.2-1.1-3.1-4-7.1-4.9c2.2-2.7,5.9-6,11.1-7.1 c2.3-0.5,4.1-1.1,5.4-2c1.3,0.1,5.5,0.3,7.2-1.8l-1.3-1c-0.7,0.9-2.7,1.2-4.2,1.2c0.1-0.2,0.2-0.4,0.3-0.6c0.7-1.8-0.3-3.4-0.3-3.4 l-1.4,0.9c0,0,0.6,0.9,0.2,1.9c-0.6,1.3-2.6,2.4-5.9,3.1c2.8-8.2-2.8-14.1-2.9-14.1l-1.2,1.2c0.1,0.1,2.2,2.3,3,5.8 c-1.7-0.3-5.7-1.3-8.3-4.6l-1.3,1c3.3,4.1,8.4,5.1,9.9,5.3c0.1,1.7-0.2,3.7-1.1,5.9c-2,0.6-3.8,1.5-5.4,2.6 c-0.3-3.6,0.8-6.6,0.9-6.6l-1.6-0.6c-0.1,0.2-1.5,4-0.9,8.4c-1.7,1.4-3.1,3-4.1,4.3c-0.3,0-0.7,0-1.1,0c0,0-0.1,0-0.4,0 c-1.7-1.7-4.1-3.4-7.4-4.9c-1.1-1.6-1.2-4-0.8-6.4c0.4-0.2,1.3-0.7,3.9-1.9c4.5-2.1,5.3-4.5,5.4-4.8l-1.6-0.5c0,0-0.7,2-4.5,3.8 c-1.2,0.6-2.1,1-2.7,1.3c0.9-3.5,2.4-6.5,2.5-6.6l-1.5-0.8c-0.2,0.4-4.7,9.3-2.9,14.9c-0.2-0.1-0.4-0.2-0.6-0.2 c-10.7-3.6-10.8-10.2-10.8-10.5l-1.7,0c0,0.3,0.1,5.1,5.8,9.1c-2.7,0.3-5.6,0-5.6,0l-0.2,1.6c0.2,0,4.6,0.5,7.9-0.4 c1.2,0.6,2.5,1.2,4,1.7c0.9,0.3,1.7,0.6,2.5,0.9c2.5,1.1,4.5,2.4,6,3.6c-2,0.3-5,1-8.2,2.9c0,0,2.3,3.2,5.7,2.5 c0,0-4.2,2.8-3.1,11.2c1.1,8.3-0.5,19.9-8.2,22.1c-7.7,2.2-23.8-0.6-27.7,0.2c0,0-6.5-6.7-17.6-7.4c0,0,6.5,9.5,11.7,10.6 c0,0-1.2,1-2.7,3.3c-17.7,0.1-32.4-1.4-39.5-5.3c-23.7-12.8-51.8-11.7-78.4,2.7c-0.4-1.5-2.7-1.8-5.8-0.1c-1.8,1-3.3,2.4-4.3,3.5 c-0.3-0.2-0.6-0.4-0.8-0.4c-2.4-0.4-4.6,3.4-11.8,6.7c-2.8,1.3-5.1,2.1-7,2.7c-1.5-0.4-3.2-0.7-4.8-0.9c-0.3,0-0.6,0-0.8-0.1 c-0.5-0.7-1-1.2-1.6-1.4c-0.8-2.4-2.5-3.8-4.1-4.6c0.1-0.6,0.2-1,0.2-1.4c0-1.6-1.2-2.7-0.9-3.6c0.3-1-0.4-1.5-0.4-1.5 c1.6-0.8,2.3-1.5,1.8-2.3c-0.5-0.7-3.1-1.8-3.2-3.4c-0.1-1-0.4-1.5-0.6-1.7c0.1-1.6-0.1-3.8-1.3-4.7l0,0c0,0,0.7-5.2-6.3-4.1 c-6.9,1.1-10.2-2.1-15.8,0.8c-5.6,3-9.7,8.7-8.9,14.1c0.3,2.3,0.1,4.1-0.4,5.4c-0.1,0-0.2-0.1-0.4-0.1c-2,0-3.5,1.6-3.5,3.5 s1.6,3.5,3.5,3.5s3.5-1.6,3.5-3.5c0-0.3-0.1-0.5-0.1-0.7c1.1-1.9,3.5-5.8,6.2-6.8c1.1,1.1,1.1,2.2,2,2c0,0-1.8,2.2-1.3,4.5 c-0.9,0.8-1.7,2-1.3,3.5c0,0-1.6,1.5-0.7,3.2c0,0-1.4,0.8-0.6,3c0,0-3,2.7-3,5.2c0,1,1,1.9,2.2,2.8c-0.2,1.7-0.1,3.5,0.7,4.9 c2.9,4.6,3.3,4.9,2.2,8.3c-0.8,2.5-0.1,6.1,0.4,7.9c-3.8-1.8-7.3-4-10.4-6.9c-21.3-20-40.2-4.3-40.2-4.3 C297.4,387.3,303.5,400.7,320.1,398z M776.7,377.1c-0.3,0.3-0.5,0.6-0.8,0.9c-7.3-2.7-14.6-5.8-21.3-9.3c-0.6-0.3-1.3-0.7-2-1 C760.4,371.3,768.7,374.5,776.7,377.1z M741.4,362c1.5,0.7,2.9,1.5,4.2,2.2c-1.4-0.7-2.9-1.4-4.4-2.1 C741.3,362.1,741.4,362,741.4,362z M733.5,358.2c0,0,0.1,0,0.1,0.1c-0.1,0.1-0.2,0.2-0.4,0.3c-0.1-0.1-0.3-0.1-0.4-0.2 C733.1,358.3,733.3,358.3,733.5,358.2z M639.9,341c8.9-1.7,18-1.9,27-1.3c-0.8,0.7-1.8,1.8-3,3.3c-6.2,0-12.4,0.5-18.5,1.7 c-7,1.3-15.6,2.7-25.1,4c0.2-1.7-0.1-3.2-0.6-4.3C627.8,343.1,634.8,342,639.9,341z M497.9,345.3c7.6,4.1,22.1,5.7,39.2,5.7 c-0.5,1-0.9,2.2-1.4,3.4c-13.3-0.4-24.1-2-30-5.1c-19.9-10.8-43.1-11.7-65.8-3.1c-1.9-1.4-4.9,0.2-4.9,0.2 c-0.1-1.9-2.5-2.4-5.9-0.5c-0.6,0.4-1.2,0.8-1.7,1.2c-0.1-0.4-0.3-0.8-0.5-1.1C459.3,329.9,484.9,338.2,497.9,345.3z M431.2,437.6 l5.4,6.5c-11.6,3.8-26.1,7.6-40.1,10.8l-1.8-7.5c4-0.9,8.1-1.9,12.1-2.9C416.6,442,424.6,439.7,431.2,437.6z M425.2,430.4l2.5,3 c-0.8,0.2-1.6,0.5-2.4,0.7l-2.3-2.7C423.7,431.1,424.5,430.8,425.2,430.4z M417.9,433.4l2,2.3c-8.4,2.4-17.5,4.7-26.4,6.7l-0.6-2.6 C403.3,437.6,411.5,435.6,417.9,433.4z M387.8,440.9l0.6,2.7c-1.1,0.3-2.3,0.5-3.4,0.8l-0.7-2.7 C385.6,441.4,386.7,441.1,387.8,440.9z M358.1,447c7.8-1.6,14.9-3,21.3-4.3l0.7,2.7c-8.3,1.8-16.1,3.2-22.6,4.4L358.1,447z M356.3,455.1c1.6-0.3,3.2-0.5,4.9-0.9c8.1-1.5,18.1-3.4,28.4-5.7l1.8,7.5c-14.3,3.2-27.8,5.7-36.9,7.1L356.3,455.1z M349.3,447.5 c1.2,0.2,2.4,0.3,3.3,0.3l-0.6,2.9c-1.2,0.2-2.4,0.4-3.5,0.5L349.3,447.5z" fill="none"/><path d="M558.4 234.8L562.7 232.4 567.1 234.5 566.1 229.7 569.4 226.1 564.6 225.6 562.2 221.3 560.2 225.8 555.4 226.7 559.1 230z" fill="none"/><path d="M286.2 475.7L297.7 472.6 306.7 480.3 307.3 468.4 317.4 462.2 306.3 458 303.5 446.5 296 455.7 284.2 454.8 290.7 464.8z" fill="none"/><path d="M617 257.4L620.9 255.2 625 257.1 624 252.7 627.2 249.4 622.6 248.9 620.5 244.9 618.6 249.1 614.2 249.9 617.5 252.9z" fill="none"/><path d="M938.2,719.2c-0.4,0-0.7,0.7-0.9,1.3L924.1,756c-0.1,0.6,0,1,0.6,1h26.5c0.7,0,0.9-0.4,0.7-0.9l-13-35.6 C938.8,720,938.6,719.2,938.2,719.2z" fill="none"/><path d="M453.8,721.2c-2-16.6-14-21.5-21.7-21.5c-3.6,0-6.2,0.1-7.6,0.6c-1,0.3-1.3,0.9-1.3,2v19V746 c0,1.6,0.3,2.2,1.3,2.6c3,1,7.4,1.4,11,1.4c5.8,0,7.6-0.6,10.2-2.5c4.3-3.2,8.5-9.8,8.5-21.6C454.1,724.3,453.9,722.7,453.8,721.2z" fill="none"/><path d="M569.3,608.8c3.6-2.8,6.6-5.9,8.9-9.3c2.3-3.4,3.5-6.8,3.5-10.2c0-1.3-0.2-2.3-0.7-2.7 c-0.5-0.5-1.3-0.7-2.4-0.7c-2.8,0-5.7,1-8.8,3c-3.1,2-6,4.6-9,7.9c-2.9,3.2-5.6,6.8-7.9,10.7c-2.3,3.9-4.2,7.8-5.5,11.5 c3.2-0.4,6.7-1.5,10.6-3.3C561.9,614,565.7,611.7,569.3,608.8z" fill="none"/><path d="M746.9,666.3c-4,2.6-7.3,5.4-10,8.3c-2,2.2-3.3,4.4-3.8,6.7c-0.2,0.8-0.3,1.5-0.3,2.3c0,1.2,0.3,2.4,0.8,3.5 c0.6,1.1,1.4,1.6,2.7,1.6c2.3,0,5.6-2.4,9.7-7.3c0,0,0-0.1,0.1-0.1c4.1-4.9,8.3-12.2,12.6-21.9 C754.8,661.4,750.9,663.7,746.9,666.3z" fill="none"/><path d="M409.7,305.1c0.4-3.1,1.9-5.9,4.2-7.9c-2.7-0.8-5-2.5-6.6-4.8c-0.7,3.1-2.7,5.8-5.3,7.5 C405.2,300.7,407.9,302.6,409.7,305.1z" fill="none"/><g id="change1_1"><path d="M877.4,638l-26.5,16.7l11.8-12.1c8.8-9,14.8-23,17.6-30.5l-18.9,11.3l5.4-7.7c3.1-4.5,6.3-10.7,9.1-16.7 c0-0.2-0.1-0.4-0.1-0.5l-0.3-5.4l2.1,2.2c0.5-1,0.9-2,1.3-3c-1.4-2.4-2.7-4.9-3.9-7.3l-5.4,1.5l3.8-4.7c-2.5-5-4.3-9.3-4.5-11.7 l-0.5-6l4,4.5c0,0.1,2.7,3,6.1,5.9c0.2-0.3,0.4-0.7,0.6-1c-3.3-5.8-7.6-13.4-10.8-19.9l-3.3,1.5l3-2.2c-2.2-4.4-3.8-8.2-4.3-10.3 l-1.8-8.1l5.3,6.4c0.8,1,2.2,2.6,3.8,4.3c-5.5-10.4-13.8-27-17.5-38.1c-2.7,8.9-7.6,23.6-13.5,33.3c1.6-1,2.9-1.9,3.4-2.6 l10.3-15.5l-6.8,17.3c-0.3,0.8-2,5-4.2,9.4l3.9-3.2l-1.3,5.7c-0.1,0.7-3.4,14.6-12.4,27.9l9-2.5l-1.3,3.6 c-0.3,0.9-6.4,17.7-13.5,30.5l13-7.7l-1.5,4.9c-0.2,0.8-4.6,15.3-13,27.9l13.5-8.5l-2.6,6c-0.4,1-9.7,22.1-18.2,33.6h42.1 C866.5,660.1,873.6,646.1,877.4,638z" fill="#008d36"/></g><g id="change2_1"><path d="M554.8,476.1l-13.9,8.6c2.1,3.2,4.2,6.4,6.2,9.2C552.5,483.6,554.8,476.1,554.8,476.1z" fill="#e30613"/></g><g id="change2_2"><path d="M263.6,530.9c5.6-11.5,10.5-27.3,12.4-34.7l3.3-12.4l0.7,12.8c0.4,7.5,10,27.4,17,40.9 c7.1-11,13.7-32.5,16.1-41.3l3.3-12.4l0.7,12.8c0.3,4.9,4.4,14.9,9.1,25c2.8-8.8,4.6-15.4,4.6-15.4c0.6,11.5,16.8,43.4,25.6,60 c8.7-13.8,12.1-25.1,12.1-25.1l-17.9,11.1c9.3-6.6,21.2-29.7,21.2-29.7c-4,4.5-25.1,11.6-25.1,11.6c21.8-12.6,42.3-72.1,42.3-72.1 c0.7,9.2,12.3,29.4,24.1,47.7c10-17.7,17.1-38.3,17.1-38.3c0.4,6,6.5,17.8,13.9,30c13.3-18.6,23.6-48.7,23.6-48.7 c0.6,7.9,10.8,25.6,20.9,41.2c15.5-17,28.6-55,28.6-55c0.6,8.5,12.5,28.4,23.3,44.9c8.7-9.4,17.9-27.3,17.9-27.3 c-4.2,4.8-26.3,12.2-26.3,12.2c22.9-13.2,44.4-75.6,44.4-75.6c1.2,16.3,35.4,65.8,46.9,82c5.3-11.7,8.6-21.4,8.6-21.4 c0.5,7.4,9.4,23.2,18.8,37.9c6.6-10.9,9.2-19.6,9.2-19.6l-15.1,9.4c7.8-5.5,17.9-25.2,17.9-25.2c-3.4,3.8-21.3,9.8-21.3,9.8 c18.5-10.7,35.8-61,35.8-61c1.1,15.8,40.9,70.4,40.9,70.4c-2.3-0.8-5.2-2.6-8.1-4.7c2.1,5.1,5.4,11.2,9.2,17.6 c13-18.6,23.1-47.9,23.1-47.9c0.7,10.2,17.4,36.4,29.3,53.8c8.5-16.3,14.3-33.1,14.3-33.1c0.7,9.2,14.5,31.7,25.9,48.8 c10.1-17.7,17.3-38.7,17.3-38.7c0.5,7.5,9.9,23.9,19.5,39c1.6-4.8,2.8-9.1,3.6-12l0.8-3.1l-6.5,5.3c2.9-2.7,6.2-8.7,8.8-14.2 l0.1-0.4l0,0.2c2.7-5.7,4.7-10.8,4.7-10.8c-2.6,3.8-16.2,9.8-16.2,9.8c14.1-10.7,27.3-61,27.3-61c0.7,12.9,21,51.6,28.4,65.4 c10.6-18.3,19.1-50.7,19.1-50.7c0.6,10.8,14.8,39.5,23.8,56.8c1.6-3,3.1-6.3,4.5-9.8C917.4,321,773.3,195.8,600,195.8 c-180.2,0-328.8,135.3-349.7,309.9c6.2,12.2,11.7,22.2,11.8,22.4L263.6,530.9z M480.6,394.7c-3.2,0-5.7-2.6-5.7-5.7 c0-3.2,2.6-5.7,5.7-5.7s5.7,2.6,5.7,5.7C486.3,392.1,483.7,394.7,480.6,394.7z M626.4,415.4l-4.1-1.9l-3.9,2.3l0.6-4.5l-3.4-3 l4.5-0.8l1.8-4.1l2.2,4l4.5,0.5l-3.1,3.3L626.4,415.4z M879,370l2.8,5.2l5.9,0.6l-4,4.3l1.2,5.8l-5.3-2.5l-5.1,3l0.8-5.9l-4.4-3.9 l5.8-1.1L879,370z M795.8,284.5c3.2,0,5.7,2.6,5.7,5.7c0,3.2-2.6,5.7-5.7,5.7c-3.2,0-5.7-2.6-5.7-5.7 C790.1,287.1,792.7,284.5,795.8,284.5z M774.8,320.8c1.9,3.7,5,6.7,8.9,8.4c-3.8,2.5-6.6,6.3-7.8,10.9c-2.1-4.2-5.8-7.6-10.5-9.2 C769.7,328.9,773.1,325.3,774.8,320.8z M712.1,246.2c1.5,2.9,3.9,5.2,7,6.6c-3,2-5.2,5-6.1,8.6c-1.7-3.3-4.6-5.9-8.2-7.2 C708,252.6,710.7,249.7,712.1,246.2z M660,270.9l7.4-9.2l2.8,11.5l11.1,4.2l-10.1,6.2l-0.6,11.8l-9.1-7.7l-11.4,3.1l4.5-11 l-6.5-9.9L660,270.9z M618.6,249.1l1.8-4.2l2.2,4l4.5,0.5l-3.1,3.3l1,4.4l-4.1-1.9l-3.9,2.3l0.6-4.5l-3.4-3L618.6,249.1z M560.2,225.8l2-4.5l2.4,4.3l4.9,0.5l-3.4,3.6l1,4.8l-4.4-2.1l-4.2,2.5l0.6-4.9l-3.6-3.3L560.2,225.8z M522.1,236.7 c2.2,4.2,5.7,7.5,10,9.5c-4.3,2.8-7.5,7.1-8.8,12.3c-2.4-4.8-6.6-8.6-11.8-10.4C516.3,245.9,520.2,241.8,522.1,236.7z M514.5,272.1 c3.9,0,7,3.1,7,7s-3.1,7-7,7c-3.9,0-7-3.1-7-7S510.6,272.1,514.5,272.1z M449.8,285.3l2.4-5.4l2.8,5.2l5.9,0.6l-4,4.3l1.2,5.8 l-5.3-2.5l-5.1,3l0.8-5.9l-4.4-3.9L449.8,285.3z M407.3,292.5c1.6,2.3,3.9,4,6.6,4.8c-2.3,2-3.8,4.8-4.2,7.9 c-1.8-2.6-4.5-4.5-7.7-5.1C404.6,298.3,406.5,295.6,407.3,292.5z M303.8,378.1c0,0,18.8-15.7,40.2,4.3c3.1,2.9,6.6,5.1,10.4,6.9 c-0.5-1.9-1.2-5.5-0.4-7.9c1.1-3.4,0.7-3.7-2.2-8.3c-0.9-1.4-1-3.1-0.7-4.9c-1.2-0.8-2.1-1.8-2.2-2.8c-0.1-2.4,3-5.2,3-5.2 c-0.8-2.2,0.6-3,0.6-3c-0.9-1.8,0.7-3.2,0.7-3.2c-0.4-1.6,0.4-2.7,1.3-3.5c-0.5-2.4,1.3-4.5,1.3-4.5c-0.9,0.2-0.9-0.9-2-2 c-2.7,1-5.1,5-6.2,6.8c0.1,0.2,0.1,0.5,0.1,0.7c0,2-1.6,3.5-3.5,3.5s-3.5-1.6-3.5-3.5s1.6-3.5,3.5-3.5c0.1,0,0.3,0.1,0.4,0.1 c0.4-1.3,0.7-3.1,0.4-5.4c-0.8-5.4,3.3-11.1,8.9-14.1c5.6-3,8.9,0.3,15.8-0.8c6.9-1.1,6.3,4.1,6.3,4.1l0,0c1.2,0.9,1.3,3.1,1.3,4.7 c0.2,0.2,0.5,0.7,0.6,1.7c0.1,1.6,2.7,2.7,3.2,3.4c0.5,0.7-0.1,1.5-1.8,2.3c0,0,0.7,0.5,0.4,1.5c-0.3,1,0.9,2,0.9,3.6 c0,0.3-0.1,0.8-0.2,1.4c1.5,0.8,3.3,2.2,4.1,4.6c0.6,0.2,1.1,0.7,1.6,1.4c0.3,0,0.5,0,0.8,0.1c1.6,0.2,3.2,0.5,4.8,0.9 c1.8-0.5,4.1-1.4,7-2.7c7.2-3.3,9.4-7.2,11.8-6.7c0.3,0.1,0.6,0.2,0.8,0.4c1-1.1,2.5-2.5,4.3-3.5c3.1-1.7,5.4-1.4,5.8,0.1 c26.6-14.5,54.7-15.6,78.4-2.7c7.2,3.9,21.9,5.3,39.5,5.3c1.5-2.3,2.7-3.3,2.7-3.3c-5.1-1.1-11.7-10.6-11.7-10.6 c11.2,0.7,17.6,7.4,17.6,7.4c3.8-0.8,19.9,2,27.7-0.2c7.7-2.2,9.4-13.8,8.2-22.1c-1.1-8.3,3.1-11.2,3.1-11.2 c-3.4,0.7-5.7-2.5-5.7-2.5c3.3-1.9,6.2-2.6,8.2-2.9c-1.5-1.3-3.5-2.5-6-3.6c-0.8-0.3-1.6-0.7-2.5-0.9c-1.5-0.5-2.9-1.1-4-1.7 c-3.3,0.9-7.7,0.4-7.9,0.4l0.2-1.6c0,0,2.9,0.3,5.6,0c-5.7-4-5.8-8.8-5.8-9.1l1.7,0c0,0.3,0.2,7,10.8,10.5c0.2,0.1,0.4,0.2,0.6,0.2 c-1.8-5.7,2.7-14.5,2.9-14.9l1.5,0.8c0,0.1-1.6,3.1-2.5,6.6c0.7-0.3,1.5-0.7,2.7-1.3c3.8-1.8,4.5-3.8,4.5-3.8l1.6,0.5 c-0.1,0.3-0.9,2.7-5.4,4.8c-2.6,1.2-3.5,1.7-3.9,1.9c-0.4,2.4-0.3,4.7,0.8,6.4c3.3,1.5,5.7,3.2,7.4,4.9c0.2,0,0.4,0,0.4,0 c0.4,0,0.8,0,1.1,0c1-1.3,2.3-2.8,4.1-4.3c-0.6-4.4,0.8-8.2,0.9-8.4l1.6,0.6c0,0-1.1,3.1-0.9,6.6c1.5-1.1,3.3-2,5.4-2.6 c0.9-2.2,1.2-4.2,1.1-5.9c-1.5-0.2-6.6-1.2-9.9-5.3l1.3-1c2.6,3.3,6.6,4.3,8.3,4.6c-0.7-3.5-2.8-5.7-3-5.8l1.2-1.2 c0.1,0.1,5.7,5.9,2.9,14.1c3.2-0.7,5.3-1.8,5.9-3.1c0.4-1-0.1-1.9-0.2-1.9l1.4-0.9c0,0.1,1.1,1.6,0.3,3.4c-0.1,0.2-0.2,0.4-0.3,0.6 c1.6,0,3.5-0.3,4.2-1.2l1.3,1c-1.6,2.1-5.9,1.9-7.2,1.8c-1.3,0.8-3.1,1.5-5.4,2c-5.2,1-8.9,4.4-11.1,7.1c4,0.9,3.8,3.9,7.1,4.9 c2.3,0.8,5.1,1.1,6.9,1.5c0.3-0.6,1-1,1.7-0.9c1,0.1,1.7,1,1.5,1.9c-0.1,0.8-0.8,1.4-1.6,1.5c-0.5,1.1-1.7,2.3-4.1,3.3 c-3.6,1.5-8.5,0.3-8.5,0.3s-1,1.7-1.5,6.1c-0.3,3,8.2,12.4,10.4,21.6c12.3-1.6,23.5-3.3,32.3-4.9c8.6-1.6,17.4-2,26.1-1.5 c-3.6-3.7-6.7-10.1-6.7-10.1c10.9,2.5,16.2,10.2,16.2,10.2c3.9-0.2,19.3,5.2,27.3,4.3c8-0.9,11.4-12.1,11.7-20.5 c0.2-8.4,4.8-10.5,4.8-10.5c-3.5,0.2-5.2-3.3-5.2-3.3c3.5-1.4,6.6-1.6,8.6-1.6c-1.3-1.5-3-3.1-5.4-4.5c-0.7-0.5-1.5-0.9-2.3-1.3 c-1.4-0.8-2.7-1.5-3.7-2.3c-3.4,0.3-7.7-0.9-7.9-0.9l0.5-1.6c0,0,2.8,0.8,5.6,0.9c-5-4.9-4.3-9.7-4.3-9.9l1.6,0.3 c0,0.3-0.9,6.9,9,12.1c0.2,0.1,0.4,0.2,0.6,0.3c-0.9-5.9,5-13.9,5.2-14.3l1.3,1c0,0.1-2,2.8-3.5,6.1c0.7-0.2,1.6-0.5,2.9-0.9 c4-1.2,5-3,5-3l1.5,0.7c-0.1,0.3-1.3,2.5-6.1,3.9c-2.7,0.8-3.8,1.1-4.2,1.3c-0.8,2.3-1.1,4.6-0.2,6.4c3.1,2,5.2,4.1,6.6,6 c0.2,0,0.3,0.1,0.3,0.1c0.4,0.1,0.7,0.1,1.1,0.2c1.2-1.1,2.8-2.4,4.7-3.6c0.1-4.4,2.1-8,2.2-8.1l1.4,0.8c0,0-1.6,2.9-1.9,6.4 c1.7-0.8,3.6-1.4,5.7-1.7c1.3-2,1.9-3.9,2-5.7c-1.5-0.4-6.3-2.2-8.9-6.8l1.4-0.8c2.1,3.7,5.9,5.4,7.5,5.9c-0.2-3.6-1.9-6-2-6.2 l1.3-1c0.1,0.1,4.7,6.8,0.6,14.4c3.3-0.1,5.6-0.9,6.3-2.1c0.6-0.9,0.2-1.9,0.1-1.9l1.5-0.7c0,0.1,0.8,1.8-0.2,3.5 c-0.1,0.2-0.3,0.4-0.4,0.5c1.5,0.2,3.5,0.3,4.4-0.5l1.1,1.2c-2,1.8-6.1,0.9-7.4,0.6c-1.4,0.6-3.3,1-5.6,1.1 c-5.3,0.2-9.4,2.9-12.1,5.2c3.8,1.5,3.2,4.4,6.2,6c2.2,1.1,4.8,1.9,6.6,2.6c0.4-0.5,1.1-0.8,1.8-0.6c0.9,0.3,1.5,1.2,1.2,2.2 c-0.2,0.8-1,1.3-1.8,1.2c-0.7,1-2,2-4.5,2.6c-3.8,0.9-8.4-1.1-8.4-1.1s-1.3,1.5-2.5,5.8c-0.9,3.1,7,15,6.8,24.8 c3,0.5,6,0.6,8.1-0.2c4.5-1.5,6.1,4.4,2.4,10.3c1.7,0.8,3.3,1.7,4.8,2.5c9.7,5.1,20.7,9.3,31.2,12.7c1.8-1.5,3-2,3-2 c-4.6-2.5-8.3-13.4-8.3-13.4c10.5,3.8,14.9,12,14.9,12c3.9,0.3,18.6,7.4,26.6,7.4c8,0,12.8-10.7,14-19c1.2-8.3,6-9.9,6-9.9 c-3.5-0.2-4.8-3.9-4.8-3.9c3.7-0.9,6.7-0.8,8.7-0.5c-1.1-1.6-2.6-3.4-4.8-5.1c-0.7-0.5-1.4-1.1-2.1-1.6c-1.3-0.9-2.5-1.8-3.4-2.7 c-3.4-0.1-7.5-1.8-7.7-1.8l0.6-1.5c0,0,2.7,1.1,5.4,1.5c-4.4-5.4-3.2-10.1-3.1-10.3l1.6,0.5c-0.1,0.3-1.7,6.7,7.5,13.1 c0.2,0.1,0.3,0.3,0.5,0.4c-0.2-6,6.6-13.2,6.9-13.6l1.2,1.1c0,0-2.3,2.5-4.2,5.7c0.7-0.1,1.7-0.3,3-0.5c4.1-0.7,5.4-2.4,5.4-2.4 l1.4,0.9c-0.2,0.2-1.6,2.3-6.5,3.1c-2.8,0.5-3.9,0.7-4.3,0.8c-1,2.2-1.6,4.5-1,6.3c2.8,2.3,4.6,4.7,5.8,6.7 c0.2,0.1,0.3,0.1,0.3,0.1c0.4,0.1,0.7,0.2,1.1,0.3c1.3-1,3-2.1,5.1-3c0.6-4.4,3-7.7,3.1-7.8l1.3,1c0,0-1.9,2.7-2.6,6.1 c1.8-0.6,3.7-1,5.9-1c1.5-1.8,2.3-3.7,2.7-5.4c-1.4-0.6-6-3-8-7.8l1.5-0.6c1.6,3.9,5.2,6,6.7,6.8c0.2-3.6-1.2-6.2-1.3-6.4l1.5-0.8 c0,0.1,3.9,7.3-1.1,14.4c3.3,0.2,5.6-0.2,6.5-1.3c0.7-0.8,0.4-1.8,0.4-1.9l1.6-0.5c0,0.1,0.6,1.9-0.6,3.4c-0.1,0.2-0.3,0.3-0.5,0.5 c1.5,0.4,3.4,0.7,4.4,0l1,1.3c-2.2,1.6-6.2,0.2-7.4-0.2c-1.5,0.5-3.4,0.6-5.7,0.4c-5.3-0.4-9.7,1.8-12.6,3.7c3.6,2,2.6,4.8,5.4,6.7 c2,1.4,4.6,2.4,6.2,3.3c0.5-0.5,1.2-0.6,1.9-0.4c0.9,0.4,1.3,1.4,1,2.3c-0.3,0.8-1.1,1.2-1.9,1c-0.8,0.9-2.2,1.7-4.8,2 c-3.9,0.5-8.2-2.1-8.2-2.1s-1.5,1.3-3.1,5.4c-1.2,2.9,5.2,15.7,3.9,25.4c2.9,0.8,5.8,1.3,8.1,0.8c6.4-1.4,5.8,10.9-6.5,16.1 l-18.5,11.2c0,0-0.5-3.1,0.6-4.9c1.1-1.8,4.3-2.6,5.8-3.2c0.5-0.2,2-1.2,3.8-2.6l-17.7,4.8c0,0,0.4-3.1,1.9-4.6s4.9-1.3,6.5-1.5 c1.5-0.2,12.2-4.4,15.5-6.9c-1.9,0.4-4.4,0.7-7,0.8c-14,5.8-43.8-6.8-43.8-6.8c-9.7,7.2-24.4,5.6-26.7,5.4 c-2.3-0.2-20.9,9.8-23.4,12.4s-8.5,6.2-10,5.1c-1.5-1.1,2.5-4.6,2.9-6.7c0.3-1.7,9.6-6.5,14.7-9.9c-4.9,1.6-9.3,3.3-10.5,4.2 c-2.8,2.1-9.5,4.5-10.8,3.2c-1.3-1.3,3.3-4.1,4.1-6.1c0.8-2,15.8-6.2,19.4-8.6c3.2-2.2,11.7-4,18.2-9.5c0.1-0.1,0.2-0.3,0.3-0.4 c0.4-0.6,0.8-1.2,1.2-1.8c-7.1-2.6-14.2-5.7-20.7-9.1c-4.2-2.2-9.2-4.7-14.7-7.2c-0.5,0.3-1,0.7-1.5,1l-17.1,13.2c0,0-0.9-3,0-4.9 c0.9-1.9,4-3.1,5.4-3.9c0.5-0.3,1.8-1.5,3.5-3l-17,6.8c0,0,0-3.2,1.4-4.8c1.4-1.6,4.7-1.9,6.2-2.2c1.1-0.2,6.6-3.1,10.7-5.8 c-1-0.4-2-0.8-3.1-1.3c-13.3,7.3-44.2-1.6-44.2-1.6c-8.8,8.3-23.6,8.4-25.9,8.5c-2.3,0.1-19.7,12.2-21.7,15.1 c-2.1,2.8-7.7,7.1-9.4,6.2c-1.6-0.9,2-4.9,2.1-7c0.1-1.7,8.8-7.6,13.5-11.6c-4.6,2.2-8.9,4.4-10,5.4c-2.6,2.4-8.9,5.6-10.3,4.4 c-1.4-1.2,2.8-4.5,3.4-6.5c0.5-2,15-8,18.3-10.8c2.9-2.6,11.2-5.4,16.9-11.5c0.1-0.1,0.2-0.3,0.2-0.4c0.6-1.3,1.2-2.4,1.9-3.4 c-5.2,0.2-10.3,0.7-15.4,1.6c-6.5,1.2-15.8,2.7-26.7,4.1c-1,2.6-2.9,5.3-5.9,7.8l-14.7,15.8c0,0-1.3-2.9-0.8-4.9 c0.5-2,3.4-3.7,4.7-4.7c0.4-0.3,1.6-1.7,2.9-3.6l-15.7,9.4c0,0-0.5-3.1,0.6-4.9s4.3-2.6,5.8-3.2c1.3-0.6,9.8-7,12.6-10.5 c-0.2,0-0.5,0.1-0.7,0.1c-1.6,0.7-3.4,1.5-5.4,2.2c-11.9,9.5-44,5.5-44,5.5c-7.3,9.6-21.9,12.1-24.2,12.5 c-2.3,0.4-17.4,15.2-19,18.4c-1.6,3.1-6.5,8.3-8.2,7.7c-1.7-0.6,1.1-5.1,1-7.2c-0.1-1.7,7.4-8.9,11.5-13.6c-4.2,2.9-8,5.8-9,7 c-2.2,2.8-7.9,6.9-9.5,6c-1.6-0.9,2.1-4.8,2.3-6.9c0.2-2.1,13.5-10.3,16.3-13.6c2.4-2.9,9.8-6.9,14.5-13.6 c-13.2-0.5-24.1-2.2-30.3-5.5c-11.9-6.4-34.2-14-62.6-3.1c0.1,0,2.1,0.5,2.1,4c0,0,1.9,2.7,0.4,4.7c0,0-0.4,2.7-3.9,3.4 c-2.9,0.6-6.7,0.3-9.3,1c-0.1,1.2-0.3,2.1-0.3,2.1s-12.1,4.8-15.4,9.4c-2.4,3.4-7.3,4.7-10.4,6.9c0.4,1.3,0.8,2.8,1.4,4.6 c0.2,0.5,0.3,1,0.4,1.5c4-2.5,6.9-5.4,8.3-8.7c6.3-15.6,22.4-13.8,25.3-7.4c2.9,6.4-0.4,16.1-11.4,17.2c0,0,14.1,12.2,9,28.7 c-1.4,4.6-4,8.2-8.2,11.1l3.3,3.9c12.8-4.3,22.2-8.6,23.8-12.4c0.5-1.3,2-1.9,3.3-1.4c1.3,0.5,1.9,2,1.4,3.3 c-0.8,2-2.9,6.9-25,14.6l5.4,6.4c10.2-3.7,17.5-7.4,18.8-10.7c0.5-1.3,2-1.9,3.3-1.4c1.3,0.5,1.9,2,1.4,3.3 c-1.1,2.6-4.4,10.6-54.7,23.2c-16.1,4-32.9,7.5-45.5,9.7c-7.4,1.3-13.3,2.2-16.7,2.6c-8.7,0.9-14.9-0.1-18.4-3.1 c-2.4-2-2.7-4.3-2.7-4.7l5.1-0.3c0,0,0-0.1,0-0.1c0.3,1.3,3.5,4.4,15.5,3.1c0.4,0,0.9-0.1,1.3-0.2l1.7-7.9 c-1.8,0.3-3.5,0.5-4.8,0.7c-0.1,0-0.2,0.1-0.4,0.1c-0.2,0-0.4,0-0.6,0c-0.2,0-0.4,0-0.6,0.1c-8.7,0.9-14.9-0.1-18.4-3.1 c-2.4-2-2.7-4.3-2.7-4.7l5.1-0.3c0,0,0-0.1,0-0.1c0.2,1.3,3.4,4.3,14.7,3.2l1.2-5.8c-6.7-3.2-13.5-11.9-11.5-34.7 c0,0,3.8-16.1-12.8-13.3C303.5,400.7,297.4,387.3,303.8,378.1z M294.6,412.3c2.3,0,4.1,1.8,4.1,4.1c0,2.3-1.8,4.1-4.1,4.1 s-4.1-1.8-4.1-4.1C290.5,414.1,292.3,412.3,294.6,412.3z M296,455.7l7.4-9.2l2.8,11.5l11.1,4.2l-10.1,6.2l-0.6,11.8l-9.1-7.7 l-11.4,3.1l4.5-11l-6.5-9.9L296,455.7z" fill="#e30613"/></g><g id="change2_3"><path d="M705.2,467.4c-4.4-3.5-8-6.8-8-6.8c0.7,2.4,3,6.5,6.2,11.5C704.1,470.3,704.7,468.7,705.2,467.4z" fill="#e30613"/></g><g id="change2_4"><path d="M352.7,447.7c-1,0-2.1-0.1-3.3-0.3l-0.8,3.7c1.1-0.2,2.3-0.3,3.5-0.5L352.7,447.7z" fill="#e30613"/></g><g id="change2_5"><path d="M490.1,496.6c1.5,2.3,3,4.6,4.5,6.8c4.4-6.6,7.8-13.3,7.8-13.3C500.7,492.1,495.1,494.6,490.1,496.6z" fill="#e30613"/></g><g id="change2_6"><path d="M412.6,527.6C412.6,527.6,412.6,527.6,412.6,527.6C412.6,527.6,412.6,527.6,412.6,527.6 C412.6,527.6,412.6,527.6,412.6,527.6z" fill="#e30613"/></g><g id="change2_7"><path d="M733.6,358.2c0,0-0.1,0-0.1-0.1c-0.2,0.1-0.4,0.1-0.7,0.2c0.1,0.1,0.3,0.1,0.4,0.2 C733.4,358.5,733.5,358.4,733.6,358.2z" fill="#e30613"/></g><g id="change2_8"><path d="M741.4,362c0,0-0.1,0.1-0.1,0.1c1.5,0.7,3,1.4,4.4,2.1C744.3,363.5,742.9,362.7,741.4,362z" fill="#e30613"/></g><g id="change2_9"><path d="M645.5,344.6c6.1-1.1,12.3-1.6,18.5-1.7c1.1-1.5,2.2-2.6,3-3.3c-9-0.6-18.1-0.3-27,1.3 c-5.1,1-12.1,2.1-20.1,3.2c0.5,1.1,0.8,2.6,0.6,4.3C629.9,347.3,638.4,345.9,645.5,344.6z" fill="#e30613"/></g><g id="change2_10"><path d="M429.2,345.8c3.4-1.9,5.8-1.4,5.9,0.5c0,0,3-1.5,4.9-0.2c22.7-8.6,45.8-7.7,65.8,3.1c5.8,3.2,16.6,4.7,30,5.1 c0.5-1.2,0.9-2.4,1.4-3.4c-17.2-0.1-31.7-1.6-39.2-5.7c-13-7.1-38.6-15.4-71,0.6c0.2,0.3,0.4,0.7,0.5,1.1 C428,346.6,428.6,346.2,429.2,345.8z" fill="#e30613"/></g><g id="change2_11"><path d="M621.9,477.9c-9.1-5.4-20.7-16-20.7-16c1.3,4.7,8,15.1,15.7,26.1C618.7,484.5,620.3,481.1,621.9,477.9z" fill="#e30613"/></g><g id="change2_12"><path d="M775.9,378c0.3-0.3,0.5-0.6,0.8-0.9c-8-2.6-16.3-5.7-24-9.4c0.6,0.3,1.3,0.7,2,1 C761.3,372.2,768.6,375.3,775.9,378z" fill="#e30613"/></g><g id="change2_13"><path d="M389.7,448.5c-10.4,2.3-20.3,4.3-28.4,5.7c-1.7,0.3-3.4,0.6-4.9,0.9l-1.7,8c9.1-1.4,22.5-3.9,36.9-7.1 L389.7,448.5z" fill="#e30613"/></g><g id="change2_14"><path d="M379.4,442.6c-6.4,1.3-13.5,2.7-21.3,4.3l-0.6,2.8c6.5-1.1,14.3-2.6,22.6-4.4L379.4,442.6z" fill="#e30613"/></g><g id="change2_15"><path d="M388.5,443.5l-0.6-2.7c-1.1,0.2-2.3,0.5-3.4,0.7l0.7,2.7C386.2,444.1,387.3,443.8,388.5,443.5z" fill="#e30613"/></g><g id="change2_16"><path d="M394.7,447.4l1.8,7.5c14-3.2,28.5-7,40.1-10.8l-5.4-6.5c-6.6,2.1-14.6,4.4-24.5,6.9 C402.7,445.5,398.7,446.5,394.7,447.4z" fill="#e30613"/></g><g id="change2_17"><path d="M427.6,433.4l-2.5-3c-0.7,0.3-1.4,0.7-2.2,1l2.3,2.7C426,433.9,426.8,433.6,427.6,433.4z" fill="#e30613"/></g><g id="change2_18"><path d="M419.9,435.7l-2-2.3c-6.4,2.2-14.6,4.2-25.1,6.5l0.6,2.6C402.4,440.4,411.5,438.1,419.9,435.7z" fill="#e30613"/></g><g id="change2_19"><path d="M940.6,530.2c0,0.3,0.1,0.7,0.2,1.1c0.1-0.2,0.2-0.4,0.3-0.6C940.8,530.4,940.6,530.2,940.6,530.2z" fill="#e30613"/></g><g id="change2_20"><path d="M893.1,515.5c0,0.4,0.1,0.8,0.2,1.3c0.1-0.2,0.2-0.5,0.3-0.7C893.2,515.7,893.1,515.5,893.1,515.5z" fill="#e30613"/></g><g id="change2_21"><path d="M904.8,506.3c0.1,0.2,0.1,0.4,0.2,0.6c0.1-0.6,0.2-0.9,0.2-0.9L904.8,506.3z" fill="#e30613"/></g><g id="change2_22"><path d="M300.6,576.3c-0.2-0.1-0.4-0.3-0.5-0.4c0.1,0.2,0.2,0.4,0.3,0.5L300.6,576.3z" fill="#e30613"/></g><g id="change1_2"><path d="M357.2,667.1c-4.5-8.5-16.9-32.8-17.8-40l-0.6-5.2l3.9,3.4c0.1,0.1,6.2,5.3,13.2,8.6c-6.2-9-18-27.5-18.5-36.4 l-0.3-5.4l3.8,3.9c0,0,2.5,2.6,5.5,5.4c-6.3-10.7-15.6-27.1-16-32.7l-0.5-6l4,4.5c0.1,0.1,3.8,4.3,8.4,7.7 c-5.7-9.9-16-28.3-17.3-34.1l-1.8-8.1l5.3,6.4c0.8,1,2.3,2.7,4,4.5c-5.6-10.5-14.1-27.5-17.8-38.8c-2.7,9-7.8,24.1-13.7,33.8 c1.7-1,3-2,3.5-2.7l10.3-15.5l-6.8,17.3c-0.1,0.3-1.9,4.9-4.3,9.7l4-3.3l-1.3,5.7c0,0.2-0.4,1.6-1,3.7l1.6,2.9l-2.2-1 c-0.6,1.8-1.4,4-2.3,6.4c3.8,6.9,7.7,13.6,10,17.4l2.9,4.8l-5.3-1.9c-2.7-1-5.4-2.7-7.8-4.5l-0.6,1.6c0,0,0,0,0,0 c4.5,8.9,11.5,20.9,16.8,29.4l4.1,6.6l-6.8-3.8c-2.8-1.6-6.6-4.8-9.6-7.6c4.3,10.6,14.9,26.4,19.6,32.8l3.2,4.4l-5.3-1.3 c-5.8-1.4-11.7-4.9-15.7-7.7c3.7,9.7,12.4,26.8,16.7,34.9H357.2z" fill="#008d36"/></g><g id="change2_23"><path d="M669.6 524.8L667.4 520.3 665.2 524.8 660.2 525.5 663.8 529 662.9 534 667.4 531.6 671.8 534 671 529 674.5 525.5z" fill="#e30613"/></g><g id="change2_24"><path d="M432.9 655L429.1 647.2 425.2 655 416.6 656.2 422.8 662.3 421.4 670.8 429.1 666.8 436.8 670.8 435.3 662.3 441.5 656.2z" fill="#e30613"/></g><g id="change2_25"><path d="M394.7 580.5L399.4 575.9 392.8 574.9 389.9 569 386.9 574.9 380.3 575.9 385.1 580.5 384 587.1 389.9 584 395.8 587.1z" fill="#e30613"/></g><g id="change2_26"><path d="M797.8 542L794 533.3 789.4 541.7 780 542.6 786.5 549.5 784.5 558.8 793.1 554.7 801.3 559.5 800.1 550.1 807.1 543.7z" fill="#e30613"/></g><g id="change2_27"><path d="M579.9 494.7L574.8 488.7 573.2 496.4 565.9 499.4 572.7 503.3 573.4 511.1 579.2 505.9 586.8 507.7 583.6 500.5 587.7 493.8z" fill="#e30613"/></g><g id="change2_28"><path d="M233.8,775c-1.2,0-1.4,0.6-1.9,2.9c-0.6,2.6-2.5,6.8-4.9,9.5c-5.8,6.6-13.5,8.1-26.4,8.1 c-19.3,0-45.4-17-45.4-51.3c0-14,2.7-27.7,13.3-37.3c6.3-5.8,14.6-8.9,27.1-8.9c13.3,0,24.5,3.9,29.3,8.9c3.6,3.7,5.5,8.8,5.6,13.3 c0,2,0.3,3.2,1.4,3.2c1.3,0,1.6-1.2,1.7-3.3c0.3-2.9,0.1-10.8,0.4-15.6c0.3-5,0.7-6.8,0.7-7.9c0-0.9-0.6-1.6-2.2-1.7 c-4.3-0.4-8.9-1.7-14.4-2.5c-6.6-0.9-12-1.4-20.9-1.4c-21.5,0-35.2,5.8-45.5,15.3c-13.8,12.7-16.9,29.7-16.9,39.5 c0,14,3.7,30.1,17.9,42.5c13.1,11.4,29.7,15.7,49.4,15.7c9.2,0,20.2-1,25.9-3.3c2.5-1,3-1.7,3.7-4.2c1.4-4.9,3.2-17.4,3.2-19.2 C235.1,776,234.8,775,233.8,775z" fill="#e30613"/></g><g id="change2_29"><path d="M372.5,799.2c-2.2,0-5.3-0.3-7.4-0.6c-4.3-0.6-5.2-3.7-5.6-7.8c-0.7-6.2-0.7-17.6-0.7-30.8v-25.4 c0-3.4,0-6.4,0-9c0-14.1,0-17.6,0.3-21.5c0.3-5,1.4-7.5,5.3-8.2c1.7-0.3,3-0.4,4.2-0.4c1.7,0,2.6-0.3,2.6-1.3c0-1-1-1.3-3-1.3 c-5.6,0-14.7,0.4-18.2,0.4c-3.9,0-13-0.4-20.8-0.4c-2,0-3,0.3-3,1.3c0,1,0.9,1.3,2.4,1.3c2,0,4.5,0.1,5.6,0.4 c4.8,1,5.9,3.3,6.2,8.2c0.2,3.9,0.3,7.4,0.3,21.5c0,2.6,0,5.6,0,9v3c0,0.7-0.4,1-0.9,1h-55.1c-0.4,0-0.9-0.3-0.9-1v-3 c0-3.4,0-6.4,0-9c0-1.9,0-3.7,0-5.2c0-9.9,0.1-12.9,0.3-16.3c0.3-5,1.4-7.5,5.3-8.2c1.7-0.3,3-0.4,4.2-0.4c1.7,0,2.6-0.3,2.6-1.3 c0-1-1-1.3-3-1.3c-2.8,0-6.5,0.1-9.8,0.2c0,0-0.1,0-0.1,0c-3.4,0.1-6.5,0.2-8.2,0.2c-3.9,0-13-0.4-20.8-0.4c-2,0-3,0.3-3,1.3 c0,1,0.9,1.3,2.5,1.3c2,0,4.5,0.1,5.6,0.4c4.8,1,5.9,3.3,6.2,8.2c0.3,4.6,0.3,8.6,0.3,30.6V760c0,13.3,0,24.7-0.7,30.7 c-0.6,4.2-1.3,7.4-4.2,7.9c-1.3,0.3-3,0.6-5.2,0.6c-1.7,0-2.3,0.4-2.3,1.2c0,1,1,1.4,2.9,1.4c5.8,0,14.8-0.4,18.2-0.4 c4,0,13.1,0.4,22.5,0.4c1.7,0,2.9-0.4,2.9-1.4c0-0.7-0.7-1.2-2.3-1.2c-2.2,0-5.3-0.3-7.4-0.6c-4.3-0.6-5.2-3.7-5.6-7.8 c-0.7-6.2-0.7-17.6-0.7-30.8v-12.7c0-0.7,0.4-0.9,0.9-0.9h55.1c0.4,0,0.9,0.3,0.9,0.9V760c0,13.3,0,24.7-0.7,30.7 c-0.6,4.2-1.3,7.4-4.2,7.9c-1.3,0.3-3,0.6-5.2,0.6c-1.7,0-2.3,0.4-2.3,1.2c0,1,1,1.4,3,1.4c5.6,0,14.7-0.4,18-0.4 c4,0,13.1,0.4,22.5,0.4c1.7,0,2.9-0.4,2.9-1.4C374.8,799.7,374.1,799.2,372.5,799.2z" fill="#e30613"/></g><g id="change2_30"><path d="M546.5,799.2c-2.2,0-5.3-0.3-7.4-0.6c-4.3-0.6-5.3-3.2-5.8-7.1c-0.6-6.2-0.6-17.6-0.6-31.6v-25.4 c0-21.9,0-25.9,0.3-30.6c0.3-5,1.4-7.5,5.3-8.2c1.7-0.3,2.9-0.4,4.3-0.4c1.4,0,2.3-0.3,2.3-1.4c0-0.9-1.1-1.2-3-1.2 c-5.5,0-14,0.4-17.6,0.4c-4.2,0-13.3-0.4-18.7-0.4c-2.3,0-3.5,0.3-3.5,1.2c0,1.2,0.9,1.4,2.3,1.4c1.7,0,3.6,0.1,5.2,0.6 c3.2,0.7,4.6,3.2,4.9,8.1c0.3,4.6,0.3,8.6,0.3,30.6V760c0,14,0,25.4-0.7,31.4c-0.4,4.2-1.3,6.6-4.2,7.2c-1.3,0.3-3,0.6-5.2,0.6 c-0.4,0-0.7,0-1,0.1c-0.1,0-0.2-0.1-0.3-0.1c-1.2,0-2.5-0.1-4-0.4c-2.2-0.4-8.1-1.4-16.1-9.8c-8.5-8.9-18.5-21.8-31.3-37.9 c13.5-10.9,18.3-20.1,18.9-29.9c0.1-0.8,0.1-1.6,0.1-2.4c0-9.7-5.8-17-9.8-19.7c-7.8-5.3-17.4-6.2-26.5-6.2 c-4.5,0-15.4,0.4-20.3,0.4c-3,0-12.1-0.4-19.7-0.4c-2.2,0-3.2,0.3-3.2,1.3c0,1,0.9,1.3,2.5,1.3c2,0,4.5,0.1,5.6,0.4 c4.8,1,5.9,3.3,6.2,8.2c0.2,3.4,0.3,6.6,0.3,17.1c0,3.6,0,7.9,0,13.5V760c0,13.3,0,24.7-0.7,30.7c-0.6,4.2-1.3,7.4-4.2,7.9 c-1.3,0.3-3,0.6-5.2,0.6c-1.7,0-2.3,0.4-2.3,1.2c0,1,1,1.4,2.9,1.4c5.8,0,14.8-0.4,17.6-0.4c2.2,0,12.8,0.4,21.2,0.4 c1.9,0,2.9-0.4,2.9-1.4c0-0.7-0.6-1.2-1.7-1.2c-1.7,0-4.9-0.3-7.1-0.6c-4.3-0.6-5.2-3.7-5.6-7.9c-0.7-6.1-0.7-17.4-0.7-30.8v-2 c0-0.9,0.4-1.2,1.2-1.2l12.5,0.3c1,0,1.9,0.1,2.6,1c1.9,2.2,8.5,12,14.3,19.9c8.1,11.1,13.5,17.9,19.7,21.2c3.7,2,7.4,2.7,15.4,2.7 h13.7c0.6,0,1-0.1,1.5-0.1c0.4,0.1,0.9,0.1,1.4,0.1c5.8,0,14.8-0.4,18.2-0.4c3.9,0,13,0.4,22.5,0.4c1.6,0,2.7-0.4,2.7-1.4 C548.8,799.7,548.1,799.2,546.5,799.2z M445.6,747.6c-2.6,1.9-4.5,2.5-10.2,2.5c-3.6,0-7.9-0.4-11-1.4c-1-0.4-1.3-1-1.3-2.6v-24.9 v-19c0-1.2,0.3-1.7,1.3-2c1.4-0.4,4-0.6,7.6-0.6c7.8,0,19.8,5,21.7,21.5c0.2,1.5,0.3,3.1,0.3,4.8 C454.1,737.8,449.9,744.5,445.6,747.6z" fill="#e30613"/></g><g id="change2_31"><path d="M606,736.1l-4-3c-12-9.1-15.3-14.1-15.3-20.8c0-8.6,6.5-14.8,17.2-14.8c9.4,0,13.6,4.3,15.7,7.1 c3,3.7,3.7,8.2,3.7,9.5c0,1.7,0.4,2.6,1.4,2.6c1.2,0,1.6-1.2,1.6-4.3c0-11.2,0.6-15.4,0.6-17.3c0-1-0.7-1.4-2-1.7 c-3.7-1-9.8-2.5-19.2-2.5c-20,0-33.3,11.4-33.3,27.2c0,11.7,5.5,21.8,21.3,34.2l6.6,5.2c12,9.4,14.1,16,14.1,23.1 c0,7.6-6.3,16.4-19.3,16.4c-8.9,0-17.4-3.9-20.6-14.6c-0.7-2.5-1.3-5.5-1.3-7.4c0-1.2-0.1-2.5-1.4-2.5c-1.2,0-1.6,1.6-1.7,3.7 c-0.1,2.3-0.7,11-0.7,18.9c0,3.2,0.4,3.9,2.7,4.9c6.2,2.7,12.7,3.7,21,3.7c7.6,0,15.7-1.3,22.9-5.9c10.4-6.8,13.5-16.7,13.5-25.1 C629.7,759.2,623.5,749.2,606,736.1z" fill="#e30613"/></g><g id="change2_32"><path d="M999.9,799.2c-1.7,0-3.9-0.1-6.1-0.6c-3-0.7-7.2-2.7-12.7-15.7c-9.2-21.9-32.3-80.7-35.7-88.7 c-1.4-3.3-2.3-4.6-3.6-4.6c-1.4,0-2.3,1.6-4,5.8L901.6,786c-2.9,7.2-5.6,12.1-12.3,13c-0.6,0.1-1.3,0.1-2.1,0.2 c-1.7-0.1-4-0.5-6.8-1.3c-4.3-1.3-5.8-5.5-7.1-14.6l-13.1-89.1c-0.2-1.6-0.6-2.7-1-3.4c-0.4-0.7-0.9-1-1.6-1c-0.7,0-1.2,0.4-1.8,1 c-0.4,0.6-0.9,1.4-1.4,2.4l-39.2,82.3l-39.4-81.3c-0.9-1.7-1.5-2.8-2-3.4c-0.7-0.8-1.2-1-1.8-1c-0.6,0-1.1,0.4-1.5,1 c-0.4,0.6-0.7,1.5-0.9,2.7l-14.3,94c-0.7,4.9-1.9,10.5-5.9,11.4c-2.2,0.4-3.2,0.4-4.3,0.4c-1.4,0-2.3,0.3-2.3,1 c0,1.3,1.2,1.6,2.6,1.6c4.6,0,11.5-0.4,14.3-0.4c2.6,0,9.1,0.4,15.1,0.4c2.2,0,3.5-0.3,3.5-1.6c0-0.7-1-1-2.2-1 c-1.4,0-3.5-0.1-6.1-0.7c-2.5-0.6-4.3-1.9-4.3-4.6c0-2.3,0.1-4.2,0.4-6.8l7.5-57.4h0.6c5,10.8,13.7,29,15,32 c1.7,4,13.1,26.1,16.6,32.7c2.3,4.3,3.7,7.2,5,7.2c1.3,0,2-1.3,5.3-8.1l31.4-65.4h0.6l8.6,63.4c0.6,4,0.1,5.9-0.7,6.2 c-1,0.4-1.6,0.9-1.6,1.6c0,0.9,0.9,1.3,4.2,1.6c4.9,0.4,20.2,0.7,26.7,0.8c0.2,0,0.3,0,0.5,0c0.3,0,0.7,0,1,0c0.4,0,0.8,0,1,0 c0.1,0,0.2,0,0.3,0c6.8-0.1,13.3-0.4,14.8-0.4c4.5,0,10.7,0.4,15.3,0.4c1.6,0,2.4-0.3,2.4-1.4c0-0.9-0.4-1.2-2.2-1.2h-2.2 c-4.5,0-5.8-1.9-5.8-4.5c0-1.7,0.7-5.2,2.2-8.8l7.8-20.6c0.3-0.9,0.6-1.2,1.3-1.2h32.1c0.7,0,1.2,0.3,1.4,1l11.5,30.6 c0.7,1.7-0.3,3-1.3,3.3c-1.4,0.1-2,0.4-2,1.3c0,1,1.7,1,4.3,1.2c11.5,0.3,22.1,0.3,27.2,0.3c5.3,0,6.6-0.3,6.6-1.4 C1001.8,799.4,1001,799.2,999.9,799.2z M951.2,757h-26.5c-0.6,0-0.7-0.4-0.6-1l13.3-35.5c0.1-0.6,0.4-1.3,0.9-1.3 c0.4,0,0.6,0.7,0.7,1.3l13,35.6C952,756.6,951.9,757,951.2,757z" fill="#e30613"/></g><g id="change2_33"><path d="M1041.4,736.1l-4-3c-12-9.1-15.3-14.1-15.3-20.8c0-8.6,6.5-14.8,17.2-14.8c9.4,0,13.6,4.3,15.7,7.1 c3,3.7,3.7,8.2,3.7,9.5c0,1.7,0.4,2.6,1.4,2.6c1.2,0,1.6-1.2,1.6-4.3c0-11.2,0.6-15.4,0.6-17.3c0-1-0.7-1.4-2-1.7 c-3.7-1-9.8-2.5-19.2-2.5c-20,0-33.3,11.4-33.3,27.2c0,11.7,5.5,21.8,21.3,34.2l6.6,5.2c12,9.4,14.1,16,14.1,23.1 c0,7.6-6.3,16.4-19.3,16.4c-8.9,0-17.4-3.9-20.6-14.6c-0.7-2.5-1.3-5.5-1.3-7.4c0-1.2-0.1-2.5-1.4-2.5c-1.2,0-1.6,1.6-1.7,3.7 c-0.1,2.3-0.7,11-0.7,18.9c0,3.2,0.4,3.9,2.7,4.9c6.2,2.7,12.7,3.7,21,3.7c7.6,0,15.7-1.3,22.9-5.9c10.4-6.8,13.5-16.7,13.5-25.1 C1065,759.2,1058.8,749.2,1041.4,736.1z" fill="#e30613"/></g><g id="change2_34"><path d="M402,653.5c3.8-4.5,7.9-11.5,12.5-21.1c4.5-9.6,10-22.1,16.4-37.4c6.4-15.3,14.3-33.8,23.6-55.5 c0,1.7,0,3.5,0.1,5.3c0.1,1.8,0.1,3.7,0.1,5.5c0,5.1-0.1,10.5-0.2,16.1c-0.1,5.6-0.3,11.3-0.6,17c-0.2,5.7-0.4,11.2-0.5,16.7 c-0.1,5.4-0.2,10.5-0.2,15.3c0,9,0.6,16.2,1.7,21.4c1.2,5.2,3.9,7.8,8.2,7.8c0.6,0,1.1-0.1,1.6-0.2c0.4-0.1,1.2-0.4,2.3-0.7 c1.3-4.2,3.2-9.3,5.7-15.5c2.4-6.2,5.3-12.9,8.4-20.2c3.2-7.3,6.5-14.6,10.1-22.1c3.5-7.5,7.1-14.5,10.8-21.3 c3.7-6.7,7.2-12.5,10.6-17.4c-4.2,15.9-7.8,31.3-10.9,46.3c-3.1,15-4.7,29.2-4.7,42.8c0,5.7,0.5,10.4,1.4,13.8 c0.9,3.5,2.7,6,5.5,7.6c2.7,1.6,6.8,2.4,12,2.4c-0.7-2.2-1.4-4-1.9-5.4c-0.6-1.4-1-3-1.3-4.9c-0.3-1.8-0.5-4.3-0.5-7.5 c0-6.1,0.5-13.2,1.4-21.2c0.9-8,2.1-16.5,3.6-25.4c1.5-8.9,3.1-17.8,4.9-26.5c1.8-8.7,3.7-16.8,5.5-24.1c1.7-6.7,3.3-12.6,4.8-17.7 c1.5-5.1,2.7-8.8,3.8-11.1c-3.7-1.3-6.4-2-8.1-2c-2.3,0-4.2,0.7-5.5,2c-1.3,1.3-2.9,3.4-4.6,6c-1.7,2.6-4.2,6.5-7.4,11.8 c-3.2,5.3-6.9,11.5-10.9,18.6c-4,7.1-8.1,14.6-12.3,22.6c-4.2,8-8,16.1-11.6,24.2c-3.6,8.1-6.6,15.8-9.1,23c0-5,0.3-11.1,0.9-18.1 c0.6-7.1,1.2-14.7,1.7-22.8c0.6-8.1,0.8-16.2,0.8-24.1c0-12.2-0.9-21.6-2.6-28.1c-1.7-6.5-4.2-11.1-7.3-13.6 c-3.2-2.5-7-3.8-11.5-3.8c-4.4,0-8.8,0.9-13.3,2.6c-4.5,1.7-8.5,4.1-12.2,7.1c-3.7,3-6.6,6.3-8.9,10c-2.3,3.7-3.4,7.5-3.4,11.4 c0,2.3,0.5,4.8,1.5,7.4c1,2.6,2.4,4.8,4.3,6.6c1.9,1.8,4.3,2.7,7.2,2.7c-0.2-1.8-0.4-3.5-0.5-5c-0.1-1.5-0.2-2.7-0.2-3.8 c0-4.4,0.8-8.9,2.3-13.4c1.5-4.5,3.9-8.3,7.2-11.5c3.2-3.1,7.4-4.7,12.6-4.7c2.1,0,3.5,0.4,4.2,1.1c0.7,0.7,1.1,1.7,1.1,2.9 c0,0.9-0.2,1.8-0.5,2.9c-0.3,1.1-0.7,2.1-1.2,3.1c-8.6,18.8-16.3,35.7-23.3,50.8c-7,15-13,28-18.1,39c-5.1,10.9-9.1,19.7-12.1,26.2 c-3,6.5-4.8,10.7-5.4,12.6C394.2,660.2,398.2,657.9,402,653.5z" fill="#e30613"/></g><g id="change2_35"><path d="M759.1,681.3c1.7-2.4,3.4-4.9,5-7.8c3.8-6.7,7.4-14.1,10.7-22c4.8-2.1,9.5-4.7,14.1-7.9 c4.6-3.2,8.8-7,12.6-11.6c3.7-4.5,6.5-9.8,8.3-15.9l-3.1-2.6c-3.4,8.9-7.9,15.8-13.5,20.6c-5.6,4.8-10.9,8.3-16,10.4 c2.6-7,4.9-13.9,7-20.9c2.1-7,3.8-13.1,5-18.4c1.3-5.3,1.9-8.9,1.9-10.7c-1.2-0.2-2.3-0.4-3.1-0.5c-0.9-0.1-1.8-0.2-2.7-0.2 c-2.8,0-5,0.9-6.5,2.6c-1.5,1.7-2.6,3.6-3.2,5.7c-0.6,2-1,3.8-1.3,5.7c-0.2,1.8-0.5,3.2-0.7,4c-2.2,3.5-4.7,7-7.4,10.4 c-2.7,3.4-5.6,6.2-8.4,8.4c-2.9,2.2-5.7,3.3-8.3,3.3c-2.1,0-3.5-0.7-4.2-2c-0.7-1.3-1.1-2.9-1.1-4.8c0-2.3,0.4-5.1,1.2-8.3 c0.8-3.2,1.8-6.4,3-9.8c1.2-3.4,2.5-6.4,3.8-9.2c1.3-2.7,2.6-4.9,3.7-6.3c-0.4-1.1-1.2-2.1-2.6-3c-1.3-0.9-2.7-1.7-4.1-2.2 c-1.4-0.5-2.5-0.8-3.2-0.8c-1.5,0-3.2,1.4-5.1,4.3c-2,2.9-3.8,6.5-5.6,10.8c-1.8,4.3-3.2,8.8-4.4,13.3c-0.2,0.8-0.4,1.6-0.5,2.3 c-0.7,1-1.3,2-2.1,3.1c-2.3,3.1-5,6.1-8.1,8.9c-3.1,2.8-6.2,5.1-9.3,6.9c-3.2,1.8-6.2,2.7-9.2,2.7c-1.2,0-2.3-0.3-3.2-0.8 c-0.9-0.6-1.4-1.7-1.4-3.4c0-2.3,0.8-5.1,2.4-8.2c1.6-3.2,3.2-6.6,4.8-10.3c1.6-3.7,2.4-7.3,2.4-10.8c0-3.9-1-7.1-2.9-9.7 c-2-2.6-4.2-4.7-6.8-6.4c-2.6-1.7-4.9-3.2-6.9-4.5c-2-1.3-3.1-2.6-3.2-3.9c0.2-0.7,0.6-1.9,1.2-3.5c0.6-1.6,0.8-2.7,0.8-3.3 c0-0.6-0.3-1.7-1-3.4c-0.7-1.7-1.7-2.5-3.2-2.5c-1.8,0-3.7,1.4-5.7,4.2c-2,2.8-2.9,5.8-2.9,9c0,2.1,0.6,3.7,1.8,4.9 c-2.6,7.2-5.3,13.8-8.1,19.6c-1.9,3.9-3.4,7.1-4.8,9.8c-0.9,1.5-2,3.1-3.2,4.8c-2.3,3.1-5,6.1-8.1,8.9c-3.1,2.8-6.2,5.1-9.3,6.9 c-3.2,1.8-6.2,2.7-9.2,2.7c-1.2,0-2.3-0.3-3.2-0.8c-0.9-0.6-1.4-1.7-1.4-3.4c0-2.3,0.8-5.1,2.4-8.2c1.6-3.2,3.2-6.6,4.8-10.3 c1.6-3.7,2.4-7.3,2.4-10.8c0-3.9-1-7.1-2.9-9.7c-2-2.6-4.2-4.7-6.8-6.4c-2.6-1.7-4.9-3.2-6.9-4.5c-2-1.3-3.1-2.6-3.2-3.9 c0.2-0.7,0.6-1.9,1.2-3.5c0.6-1.6,0.8-2.7,0.8-3.3c0-0.6-0.3-1.7-1-3.4c-0.7-1.7-1.7-2.5-3.2-2.5c-1.8,0-3.7,1.4-5.7,4.2 c-2,2.8-2.9,5.8-2.9,9c0,2.1,0.6,3.7,1.8,4.9c-2.6,7.2-5.3,13.8-8.1,19.6c-2.2,4.7-4.1,8.5-5.7,11.4c-2.4,3.7-5.1,7.2-8.2,10.4 c-4.6,4.8-9.5,8.6-14.7,11.5c-5.2,2.9-10.4,4.3-15.5,4.3c-3.4,0-6.1-0.6-8.1-1.8c-2-1.2-3.4-2.7-4.2-4.4c-0.9-1.7-1.4-3.3-1.6-4.9 c-0.2-1.5-0.3-2.6-0.3-3.2c0-1.2,0-2.1,0.1-2.7c0.1-0.5,0.1-1.1,0.3-1.6c5.5-0.6,11-1.9,16.4-3.9c5.4-2,10.4-4.6,14.9-7.8 c4.5-3.2,8.1-6.8,10.8-10.8c2.7-4,4-8.4,4-13c0-4.9-1.4-8.2-4.3-9.8c-2.9-1.7-5.9-2.5-9.1-2.5c-5.6,0-11.2,1.6-16.9,4.9 c-5.6,3.3-10.8,7.6-15.4,12.9c-4.6,5.3-8.3,11-11.1,17c-2.7,6-4.1,11.8-4.1,17.1c0,6.4,2.1,11.6,6.3,15.9 c4.2,4.2,10.2,6.3,18.1,6.3c6.6,0,13-1.5,19.3-4.6c6.3-3.1,12-7.3,17.2-12.8c2.7-2.9,5.1-6,7.3-9.3l0.1,0.2 c2.1-3.5,4.8-8.5,8.2-14.8c3.4-6.3,6.4-12.8,9.1-19.5c2.4,1.2,4.6,2.8,6.4,4.7c1.8,1.9,2.7,4.2,2.7,7.1c0,2.9-0.9,6.3-2.7,10.1 c-1.8,3.8-3.5,7.6-5.2,11.6c-1.7,3.9-2.6,7.6-2.6,11c0,4,1.4,7.2,4.2,9.6c2.8,2.4,6.5,3.6,11,3.6c5.5,0,10.9-1.6,16.3-4.9 c5.4-3.2,10.3-7.4,14.7-12.5c4.4-5.1,7.8-10.2,10.1-15.5L671,616c0.9-1.6,1.8-3.2,2.7-5c3.4-6.3,6.4-12.8,9.1-19.5 c2.4,1.2,4.6,2.8,6.4,4.7c1.8,1.9,2.8,4.2,2.8,7.1c0,2.9-0.9,6.3-2.7,10.1c-1.8,3.8-3.5,7.6-5.2,11.6c-1.7,3.9-2.6,7.6-2.6,11 c0,4,1.4,7.2,4.2,9.6c2.8,2.4,6.5,3.6,11,3.6c5.5,0,10.9-1.6,16.3-4.9c5.4-3.2,10.3-7.4,14.7-12.5c0.5-0.6,0.9-1.2,1.4-1.7 c0.3,2.7,1.1,4.9,2.3,6.7c1.7,2.3,3.7,3.8,6.1,4.8c2.4,0.9,4.8,1.4,7,1.4c5.3,0,10-2,14.3-6.1c4.3-4,8.3-8.7,12.1-13.9 c-1.2,4.6-2.7,9.7-4.3,15.1c-1.6,5.4-3.1,9.9-4.5,13.5c-3.9,1.8-8,3.8-12.2,6c-4.2,2.1-8.2,4.5-11.8,7.1c-3.7,2.6-6.7,5.5-9,8.6 c-1.9,2.5-2.9,5.2-3.3,8.2c-0.1,0.8-0.2,1.5-0.2,2.3c0,4.2,1.3,7.2,3.9,9.1c0.2,0.1,0.4,0.2,0.6,0.4c-1.5,0.1-3.3,0.2-5.4,0.2 h-57.1c-4.8,0-10.2-0.3-14.4-0.7c-3.6-0.3-5-1.7-6.2-1.7c-0.9,0-1.3,0.9-1.7,2.7c-0.3,1.2-3,14.3-3,16.6c0,1.6,0.3,2.3,1.3,2.3 c0.9,0,1.3-0.6,1.6-1.7c0.3-1.2,1-2.9,2.5-5c2.2-3.2,5.6-3.9,14-4.2l21.5-0.6V760c0,13.3,0,24.7-0.7,30.7c-0.4,4.2-1.3,7.4-4.2,7.9 c-1.3,0.3-3,0.6-5.2,0.6c-1.7,0-2.3,0.4-2.3,1.2c0,1,1,1.4,2.9,1.4c5.8,0,14.8-0.4,18.2-0.4c4,0,13.1,0.4,22.6,0.4 c1.6,0,2.7-0.4,2.7-1.4c0-0.7-0.7-1.2-2.3-1.2c-2.2,0-5.3-0.3-7.4-0.6c-4.3-0.6-5.2-3.7-5.6-7.8c-0.7-6.2-0.7-17.6-0.7-30.8v-59.1 l18.2,0.4c12.8,0.3,16.7,4.3,17,8.1l0.1,1.6c0.1,2.2,0.4,2.9,1.6,2.9c0.9,0,1.2-0.9,1.3-2.3c0-3.6,0.4-12.7,0.4-16.2 c4.3-0.4,8.3-2.3,12.1-5.8C754.4,687.3,756.8,684.5,759.1,681.3z M552.9,607.6c2.3-3.9,5-7.5,7.9-10.7c2.9-3.2,5.9-5.9,9-7.9 c3.1-2,6-3,8.8-3c1.1,0,1.9,0.2,2.4,0.7c0.5,0.5,0.7,1.4,0.7,2.7c0,3.4-1.2,6.8-3.5,10.2c-2.3,3.4-5.3,6.4-8.9,9.3 c-3.6,2.8-7.4,5.1-11.3,7c-3.9,1.8-7.5,2.9-10.6,3.3C548.7,615.3,550.5,611.5,552.9,607.6z M746.1,681.4c-4.2,4.9-7.4,7.3-9.7,7.3 c-1.2,0-2.1-0.6-2.7-1.6c-0.5-1.1-0.8-2.3-0.8-3.5c0-0.8,0.1-1.5,0.3-2.3c0.5-2.3,1.8-4.5,3.8-6.7c2.7-2.9,6-5.7,10-8.3 c4-2.6,7.9-4.9,11.8-6.9C754.5,669.2,750.3,676.5,746.1,681.4C746.1,681.4,746.1,681.4,746.1,681.4z" fill="#e30613"/></g><g id="change1_3"><path d="M909.2,667.1c6.2-7,13.4-20.3,18.6-30.8c-0.8-1.9-1.4-3.6-1.9-5.1l-25.4,16l11.8-12.1 c6.3-6.5,11.6-15,15.6-22.9c-2-4-3.6-7.7-4.3-10.9l-11.3,6.7l5.4-7.7c2.3-3.2,4.5-7.1,6.7-11.3c-4.3-7.9-8-15.6-8.3-19l-0.5-6 l4,4.5c0.1,0.1,3.7,4.2,8.2,7.5c-5.7-9.8-15.8-27.8-17-33.6l-1.8-8.1l5.3,6.4c0.8,1,2.2,2.6,3.8,4.3c-5.5-10.4-13.8-27-17.5-38.1 c-2.7,8.9-7.6,23.6-13.5,33.3c1.6-1,2.9-1.9,3.4-2.6L901,522l-6.8,17.3c-0.3,0.8-2,5-4.2,9.4l3.9-3.2l-1.3,5.7 c-0.1,0.7-3.4,14.6-12.4,27.9l9-2.5l-1.3,3.6c-0.3,0.9-6.4,17.7-13.5,30.5l13-7.7l-1.5,4.9c-0.2,0.8-4.6,15.3-13,27.9l13.5-8.5 l-2.6,6c-0.4,1-9.7,22.1-18.2,33.6h29.7H909.2z" fill="#008d36"/></g><g id="change1_4"><path d="M266.2,623.6c4.2,11.6,15.5,33.7,20.7,43.5h33.3c-4.5-8.5-16.9-32.8-17.8-40l-0.6-5.2l3.9,3.4 c0.1,0.1,6.2,5.3,13.2,8.6c-6.2-9-18-27.5-18.5-36.4l-0.3-5.4l3.8,3.9c0,0,2.5,2.6,5.5,5.4c-6.3-10.7-15.6-27.1-16-32.7l-0.5-6 l4,4.5c0.1,0.1,3.8,4.3,8.4,7.7c-5.7-9.9-16-28.3-17.3-34.1l-1.8-8.1l5.3,6.4c0.8,1,2.3,2.7,4,4.5c-5.6-10.5-14.1-27.5-17.8-38.8 c-2.7,9-7.8,24.1-13.7,33.8c1.7-1,3-2,3.5-2.7l10.3-15.5l-6.8,17.3c-0.1,0.3-1.9,4.9-4.3,9.7l4-3.3l-1.3,5.7 c-0.1,0.2-0.5,2.1-1.4,5.1c1.4,2.5,2.8,4.8,4,6.8l2.9,4.8l-5.3-1.9c-1.5-0.5-2.9-1.3-4.3-2.1c-0.8,1.8-1.6,3.8-2.7,5.8 c5.7,10.6,12.8,22.5,16.6,28.6l4.1,6.6l-6.8-3.8c-3.8-2.1-8.9-6.6-12.6-10.2c5.6,15.3,23.8,40.6,24.1,40.9l3.2,4.4l-5.3-1.3 C278.4,631.7,270.9,627,266.2,623.6z" fill="#008d36"/></g><g id="change1_5"><path d="M948.4,499.6l10.3-15.5l-6.8,17.3c-0.2,0.5-3,7.7-6.6,14.6l5.8-4.8l-1.3,5.7c-0.2,0.9-4.6,19.7-16.8,37 l12.1-3.3l-1.3,3.6c-0.4,1.1-8.9,24.6-18.4,41.1l17.3-10.3l-1.5,4.9c-0.3,1-6.5,21.4-18.2,38.1l18.2-11.4l-2.6,6 c-0.6,1.3-13,29.6-24,44.1h101.2c-5.3-10-21.9-42.1-23-51.5l-0.6-5.2l3.9,3.4c0.1,0.1,8.9,7.7,18.7,11.8 c-7.4-10.8-23.9-35.9-24.6-47.7l-0.3-5.4l3.8,3.9c0.1,0.1,4.7,4.9,9.7,9.3c-8-13.3-21.5-36.9-22.2-44.4l-0.5-6l4,4.5 c0.1,0.1,6.1,6.8,12.9,11.3c-6.9-11.9-21.5-37.6-23.2-45.3l-1.8-8.1l5.3,6.4c1.5,1.8,4.6,5.3,7.8,8.5 c-7.1-13.4-20.2-38.9-24.9-54.4c-3.5,11.7-10.7,33.7-19.1,46.5C944.9,502.6,947.6,500.8,948.4,499.6z" fill="#008d36"/></g><g id="change1_6"><path d="M187.6,666.8h94.5c-5.1-9.6-20.4-39.4-21.5-48.2l-0.6-5.2l3.9,3.4c0.1,0.1,8.1,7,17.1,10.8 c-7.1-10.3-22.2-33.5-22.8-44.4l-0.3-5.4l3.8,3.9c0.1,0.1,4.1,4.2,8.5,8.2c-7.5-12.6-19.8-34.1-20.4-41l-0.5-6l4,4.5 c0.1,0.1,5.4,6.1,11.6,10.3c-6.6-11.3-19.9-34.9-21.5-42.1l-1.8-8.1l5.3,6.4c1.3,1.6,3.9,4.6,6.7,7.4 c-6.7-12.6-18.5-35.6-22.9-49.9c-3.3,10.9-9.8,30.9-17.5,42.8c2.7-1.5,5-3.1,5.7-4.1l10.3-15.5l-6.8,17.3 c-0.2,0.5-2.7,6.8-5.9,13.2l5.3-4.3l-1.3,5.7c-0.2,0.8-4.2,18.3-15.6,34.5l11.3-3.1l-1.3,3.6c-0.4,1.1-8.2,22.7-17,38.2L214,590 l-1.5,4.9c-0.3,1-6,19.7-16.7,35.3l16.9-10.6l-2.6,6C209.5,626.8,198,653.1,187.6,666.8z" fill="#008d36"/></g><g id="change2_36"><path d="M718.9,520c0,3.9,3.1,7,7,7c3.9,0,7-3.1,7-7s-3.1-7-7-7C722.1,512.9,718.9,516.1,718.9,520z" fill="#e30613"/></g><g id="change2_37"><circle cx="654.5" cy="571.4" fill="#e30613" r="6.3"/></g><g id="change2_38"><path d="M490.3,518.9c-1.6,3.9-4.7,6.9-8.4,8.6c4,1.5,7.1,4.5,8.9,8.2c1.1-4,3.7-7.2,7-9.3 C494.5,524.9,491.9,522.2,490.3,518.9z" fill="#e30613"/></g><g id="change2_39"><path d="M377.8,616.9c-1.6,3.9-4.7,6.9-8.4,8.6c4,1.5,7.1,4.5,8.9,8.2c1.1-4,3.7-7.2,7-9.3 C382,622.8,379.3,620.1,377.8,616.9z" fill="#e30613"/></g><g id="change2_40"><path d="M613.5,542.8c1.6-5.6,5.2-10.1,9.9-13.1c-4.6-2.3-8.3-6-10.5-10.5c-2.3,5.5-6.5,9.7-11.8,12.1 C606.6,533.4,611,537.6,613.5,542.8z" fill="#e30613"/></g><g id="change2_41"><path d="M200.2,739.3c5.6,2.1,10,6.3,12.5,11.5c1.6-5.6,5.2-10.1,9.9-13.1c-4.6-2.3-8.3-6-10.5-10.5 C209.7,732.6,205.4,736.9,200.2,739.3z" fill="#e30613"/></g><g id="change2_42"><path d="M906.1,720.3c1.6-5.6,5.2-10.1,9.9-13.1c-4.6-2.3-8.3-6-10.5-10.5c-2.3,5.5-6.5,9.7-11.8,12.1 C899.2,710.9,903.6,715.1,906.1,720.3z" fill="#e30613"/></g><g id="change2_43"><path d="M813.7,675.9c-2.3,5.5-6.5,9.7-11.8,12.1c5.6,2.1,10,6.3,12.5,11.5c1.6-5.6,5.2-10.1,9.9-13.1 C819.6,684.2,815.9,680.5,813.7,675.9z" fill="#e30613"/></g></g></svg>